<svg width="16" height="16" viewBox="0 0 16 16" fill="none" xmlns="http://www.w3.org/2000/svg">
<path d="M5.25 15.5C4.8375 15.5 4.48438 15.3531 4.19063 15.0594C3.89688 14.7656 3.75 14.4125 3.75 14C3.75 13.5875 3.89688 13.2344 4.19063 12.9406C4.48438 12.6469 4.8375 12.5 5.25 12.5C5.6625 12.5 6.01562 12.6469 6.30938 12.9406C6.60313 13.2344 6.75 13.5875 6.75 14C6.75 14.4125 6.60313 14.7656 6.30938 15.0594C6.01562 15.3531 5.6625 15.5 5.25 15.5ZM12.75 15.5C12.3375 15.5 11.9844 15.3531 11.6906 15.0594C11.3969 14.7656 11.25 14.4125 11.25 14C11.25 13.5875 11.3969 13.2344 11.6906 12.9406C11.9844 12.6469 12.3375 12.5 12.75 12.5C13.1625 12.5 13.5156 12.6469 13.8094 12.9406C14.1031 13.2344 14.25 13.5875 14.25 14C14.25 14.4125 14.1031 14.7656 13.8094 15.0594C13.5156 15.3531 13.1625 15.5 12.75 15.5ZM4.6125 3.5L6.4125 7.25H11.6625L13.725 3.5H4.6125ZM3.9 2H14.9625C15.25 2 15.4688 2.12813 15.6188 2.38438C15.7688 2.64062 15.775 2.9 15.6375 3.1625L12.975 7.9625C12.8375 8.2125 12.6531 8.40625 12.4219 8.54375C12.1906 8.68125 11.9375 8.75 11.6625 8.75H6.075L5.25 10.25H14.25V11.75H5.25C4.6875 11.75 4.2625 11.5031 3.975 11.0094C3.6875 10.5156 3.675 10.025 3.9375 9.5375L4.95 7.7L2.25 2H0.75V0.5H3.1875L3.9 2Z" fill="black"/>
</svg>
