<svg width="20" height="20" viewBox="0 0 20 20" fill="none" xmlns="http://www.w3.org/2000/svg">
<path d="M0.833333 0C0.61232 0 0.400358 0.0877975 0.244078 0.244078C0.0877975 0.400358 0 0.61232 0 0.833333C0 1.05435 0.0877975 1.26631 0.244078 1.42259C0.400358 1.57887 0.61232 1.66667 0.833333 1.66667H1.24333C1.42429 1.66698 1.60022 1.72618 1.74455 1.83533C1.88887 1.94448 1.99375 2.09764 2.04333 2.27167L4.68667 11.5217C4.83617 12.0437 5.15157 12.5028 5.58517 12.8297C6.01877 13.1565 6.547 13.3333 7.09 13.3333H14.705C15.2047 13.3334 15.693 13.1837 16.1069 12.9036C16.5207 12.6234 16.8411 12.2257 17.0267 11.7617L19.4833 5.61833C19.5843 5.36554 19.6219 5.09186 19.5927 4.82122C19.5635 4.55057 19.4684 4.2912 19.3158 4.06576C19.1632 3.84033 18.9578 3.65571 18.7173 3.52803C18.4769 3.40035 18.2089 3.33351 17.9367 3.33333H4.08L3.645 1.81333C3.49588 1.29129 3.18086 0.831977 2.74757 0.504827C2.31427 0.177678 1.78626 0.000473947 1.24333 0H0.833333ZM6.29 11.0617L4.55667 5H17.935L15.4783 11.1433C15.4164 11.2978 15.3097 11.4302 15.1719 11.5235C15.034 11.6168 14.8714 11.6666 14.705 11.6667H7.09C6.90905 11.6664 6.73311 11.6071 6.58879 11.498C6.44446 11.3889 6.33958 11.2357 6.29 11.0617ZM7.5 20C7.8283 20 8.15339 19.9353 8.45671 19.8097C8.76002 19.6841 9.03562 19.4999 9.26777 19.2678C9.49991 19.0356 9.68406 18.76 9.8097 18.4567C9.93534 18.1534 10 17.8283 10 17.5C10 17.1717 9.93534 16.8466 9.8097 16.5433C9.68406 16.24 9.49991 15.9644 9.26777 15.7322C9.03562 15.5001 8.76002 15.3159 8.45671 15.1903C8.15339 15.0647 7.8283 15 7.5 15C6.83696 15 6.20107 15.2634 5.73223 15.7322C5.26339 16.2011 5 16.837 5 17.5C5 18.163 5.26339 18.7989 5.73223 19.2678C6.20107 19.7366 6.83696 20 7.5 20ZM7.5 18.3333C7.27899 18.3333 7.06702 18.2455 6.91074 18.0893C6.75446 17.933 6.66667 17.721 6.66667 17.5C6.66667 17.279 6.75446 17.067 6.91074 16.9107C7.06702 16.7545 7.27899 16.6667 7.5 16.6667C7.72101 16.6667 7.93297 16.7545 8.08926 16.9107C8.24554 17.067 8.33333 17.279 8.33333 17.5C8.33333 17.721 8.24554 17.933 8.08926 18.0893C7.93297 18.2455 7.72101 18.3333 7.5 18.3333ZM14.1667 20C14.495 20 14.8201 19.9353 15.1234 19.8097C15.4267 19.6841 15.7023 19.4999 15.9344 19.2678C16.1666 19.0356 16.3507 18.76 16.4764 18.4567C16.602 18.1534 16.6667 17.8283 16.6667 17.5C16.6667 17.1717 16.602 16.8466 16.4764 16.5433C16.3507 16.24 16.1666 15.9644 15.9344 15.7322C15.7023 15.5001 15.4267 15.3159 15.1234 15.1903C14.8201 15.0647 14.495 15 14.1667 15C13.5036 15 12.8677 15.2634 12.3989 15.7322C11.9301 16.2011 11.6667 16.837 11.6667 17.5C11.6667 18.163 11.9301 18.7989 12.3989 19.2678C12.8677 19.7366 13.5036 20 14.1667 20ZM14.1667 18.3333C13.9457 18.3333 13.7337 18.2455 13.5774 18.0893C13.4211 17.933 13.3333 17.721 13.3333 17.5C13.3333 17.279 13.4211 17.067 13.5774 16.9107C13.7337 16.7545 13.9457 16.6667 14.1667 16.6667C14.3877 16.6667 14.5996 16.7545 14.7559 16.9107C14.9122 17.067 15 17.279 15 17.5C15 17.721 14.9122 17.933 14.7559 18.0893C14.5996 18.2455 14.3877 18.3333 14.1667 18.3333Z" fill="white"/>
</svg>
