<svg width="18" height="18" viewBox="0 0 18 18" fill="none" xmlns="http://www.w3.org/2000/svg">
<path d="M15.4572 2.15655H11.9924C11.8195 0.94457 10.5444 0 8.99996 0C7.45561 0 6.18064 0.944517 6.0078 2.15655H2.5428C1.14061 2.15655 0 3.07918 0 4.21303V4.31855C0 5.18503 0.66718 5.92667 1.60706 6.22885V15.9435C1.60706 17.0774 2.74782 18 4.1499 18H13.8501C15.2523 18 16.3929 17.0773 16.3929 15.9435V6.22889C17.3328 5.92667 18 5.18503 18 4.31858V4.21307C18 3.07918 16.8593 2.15655 15.4572 2.15655ZM8.99993 0.975267C9.87831 0.975267 10.6115 1.48437 10.7737 2.15653H7.22651C7.38868 1.48434 8.12189 0.975267 8.99993 0.975267ZM15.1869 15.9435C15.1869 16.5397 14.5871 17.0248 13.8501 17.0248H4.14984C3.41285 17.0248 2.81303 16.5396 2.81303 15.9435V6.37501H15.1869L15.1869 15.9435ZM16.7939 4.31853C16.7939 4.91469 16.1941 5.39978 15.4571 5.39978H2.54276C1.80578 5.39978 1.20595 4.91469 1.20595 4.31853V4.21301C1.20595 3.61685 1.80578 3.13176 2.54276 3.13176H15.4572C16.1941 3.13176 16.794 3.61685 16.794 4.21301V4.31853H16.7939ZM5.76692 15.7775C6.09997 15.7775 6.36993 15.5591 6.36993 15.2899V9.79944C6.36993 9.53019 6.09992 9.31178 5.76692 9.31178C5.43391 9.31178 5.16391 9.5302 5.16391 9.79944V15.2899C5.16387 15.5592 5.43387 15.7775 5.76692 15.7775ZM8.99993 15.7775C9.33298 15.7775 9.60299 15.5591 9.60299 15.2899V9.79944C9.60299 9.53019 9.33287 9.31178 8.99993 9.31178C8.66693 9.31178 8.39693 9.5302 8.39693 9.79944V15.2899C8.39693 15.5592 8.66689 15.7775 8.99993 15.7775ZM12.2329 15.7775C12.566 15.7775 12.8359 15.5591 12.8359 15.2899V9.79944C12.8359 9.53019 12.5659 9.31178 12.2329 9.31178C11.8999 9.31178 11.6299 9.5302 11.6299 9.79944V15.2899C11.6299 15.5592 11.9 15.7775 12.2329 15.7775Z" fill="#FF686D"/>
</svg>
