<svg width="21" height="18" viewBox="0 0 21 18" fill="none" xmlns="http://www.w3.org/2000/svg">
<path d="M10.4167 0C12.5711 0 14.6138 0.747475 16.3923 2.13131C18.1707 3.50404 19.685 5.51515 20.7724 8.0303C20.8537 8.22121 20.8537 8.44444 20.7724 8.62626C18.5976 13.6566 14.7256 16.6667 10.4167 16.6667H10.4065C6.10772 16.6667 2.23577 13.6566 0.0609756 8.62626C-0.0203252 8.44444 -0.0203252 8.22121 0.0609756 8.0303C2.23577 2.99899 6.10772 0 10.4065 0H10.4167ZM10.4167 4.29293C8.17073 4.29293 6.35163 6.10101 6.35163 8.33333C6.35163 10.5556 8.17073 12.3636 10.4167 12.3636C12.6524 12.3636 14.4715 10.5556 14.4715 8.33333C14.4715 6.10101 12.6524 4.29293 10.4167 4.29293Z" fill="#37474F" fill-opacity="0.6"/>
<path d="M13.0711 8.52525C13.0711 9.90909 11.9329 11.0404 10.5407 11.0404C9.13821 11.0404 8 9.90909 8 8.52525C8 8.35354 8.02033 8.19293 8.05081 8.03131H8.10163C9.22968 8.03131 10.1443 7.14242 10.185 6.0303C10.2967 6.01111 10.4187 6 10.5407 6C11.9329 6 13.0711 7.13131 13.0711 8.52525Z" fill="#37474F" fill-opacity="0.6"/>
<rect opacity="0.6" x="17.3682" width="1" height="22.0714" transform="rotate(41.8068 17.3682 0)" fill="#37474F"/>
</svg>
