<svg width="18" height="16" viewBox="0 0 18 16" fill="none" xmlns="http://www.w3.org/2000/svg">
<path d="M9.00033 15.5007L7.79199 14.4173C6.38921 13.1534 5.22949 12.0632 4.31283 11.1465C3.39616 10.2298 2.66699 9.4069 2.12533 8.67773C1.58366 7.94857 1.20519 7.27843 0.989909 6.66732C0.774631 6.05621 0.666992 5.43121 0.666992 4.79232C0.666992 3.48676 1.10449 2.39648 1.97949 1.52148C2.85449 0.646484 3.94477 0.208984 5.25033 0.208984C5.97255 0.208984 6.66005 0.361762 7.31283 0.667318C7.9656 0.972873 8.5281 1.40343 9.00033 1.95898C9.47255 1.40343 10.035 0.972873 10.6878 0.667318C11.3406 0.361762 12.0281 0.208984 12.7503 0.208984C14.0559 0.208984 15.1462 0.646484 16.0212 1.52148C16.8962 2.39648 17.3337 3.48676 17.3337 4.79232C17.3337 5.43121 17.226 6.05621 17.0107 6.66732C16.7955 7.27843 16.417 7.94857 15.8753 8.67773C15.3337 9.4069 14.6045 10.2298 13.6878 11.1465C12.7712 12.0632 11.6114 13.1534 10.2087 14.4173L9.00033 15.5007ZM9.00033 13.2507C10.3337 12.0562 11.4309 11.0319 12.292 10.1777C13.1531 9.32357 13.8337 8.58051 14.3337 7.94857C14.8337 7.31662 15.1809 6.75412 15.3753 6.26107C15.5698 5.76801 15.667 5.27843 15.667 4.79232C15.667 3.95898 15.3892 3.26454 14.8337 2.70898C14.2781 2.15343 13.5837 1.87565 12.7503 1.87565C12.0975 1.87565 11.4934 2.05968 10.9378 2.42773C10.3823 2.79579 10.0003 3.26454 9.79199 3.83398H8.20866C8.00033 3.26454 7.61838 2.79579 7.06283 2.42773C6.50727 2.05968 5.9031 1.87565 5.25033 1.87565C4.41699 1.87565 3.72255 2.15343 3.16699 2.70898C2.61144 3.26454 2.33366 3.95898 2.33366 4.79232C2.33366 5.27843 2.43088 5.76801 2.62533 6.26107C2.81977 6.75412 3.16699 7.31662 3.66699 7.94857C4.16699 8.58051 4.84755 9.32357 5.70866 10.1777C6.56977 11.0319 7.66699 12.0562 9.00033 13.2507Z" fill="white"/>
</svg>
