<svg width="12" height="16" viewBox="0 0 12 16" fill="none" xmlns="http://www.w3.org/2000/svg">
<path d="M6 11.3563C7.2375 10.3563 8.17188 9.39375 8.80313 8.46875C9.43438 7.54375 9.75 6.675 9.75 5.8625C9.75 5.1625 9.62188 4.56563 9.36563 4.07188C9.10938 3.57812 8.79375 3.17813 8.41875 2.87188C8.04375 2.56562 7.6375 2.34375 7.2 2.20625C6.7625 2.06875 6.3625 2 6 2C5.6375 2 5.2375 2.06875 4.8 2.20625C4.3625 2.34375 3.95625 2.56562 3.58125 2.87188C3.20625 3.17813 2.89062 3.57812 2.63438 4.07188C2.37813 4.56563 2.25 5.1625 2.25 5.8625C2.25 6.675 2.56563 7.54375 3.19688 8.46875C3.82813 9.39375 4.7625 10.3563 6 11.3563ZM6 13.25C4.2375 11.95 2.92188 10.6875 2.05313 9.4625C1.18438 8.2375 0.75 7.0375 0.75 5.8625C0.75 4.975 0.909375 4.19688 1.22813 3.52813C1.54688 2.85938 1.95625 2.3 2.45625 1.85C2.95625 1.4 3.51875 1.0625 4.14375 0.8375C4.76875 0.6125 5.3875 0.5 6 0.5C6.6125 0.5 7.23125 0.6125 7.85625 0.8375C8.48125 1.0625 9.04375 1.4 9.54375 1.85C10.0438 2.3 10.4531 2.85938 10.7719 3.52813C11.0906 4.19688 11.25 4.975 11.25 5.8625C11.25 7.0375 10.8156 8.2375 9.94688 9.4625C9.07812 10.6875 7.7625 11.95 6 13.25ZM6 7.25C6.4125 7.25 6.76562 7.10313 7.05938 6.80938C7.35313 6.51562 7.5 6.1625 7.5 5.75C7.5 5.3375 7.35313 4.98438 7.05938 4.69063C6.76562 4.39688 6.4125 4.25 6 4.25C5.5875 4.25 5.23438 4.39688 4.94063 4.69063C4.64688 4.98438 4.5 5.3375 4.5 5.75C4.5 6.1625 4.64688 6.51562 4.94063 6.80938C5.23438 7.10313 5.5875 7.25 6 7.25ZM0.75 15.5V14H11.25V15.5H0.75Z" fill="black"/>
</svg>
