<svg width="18" height="18" viewBox="0 0 18 18" fill="none" xmlns="http://www.w3.org/2000/svg">
<path fill-rule="evenodd" clip-rule="evenodd" d="M8.00391 1.0003C8.00391 0.450137 8.45391 0 9.00391 0C9.55391 0 10.0039 0.450137 10.0039 1.0003V9.00273C10.0039 9.5529 9.55391 10.003 9.00391 10.003C8.45391 10.003 8.00391 9.5529 8.00391 9.00273V1.0003ZM14.1336 4.25155C13.7636 3.86143 13.7536 3.25125 14.1436 2.86113C14.5436 2.46101 15.2036 2.47101 15.5836 2.88113C17.0836 4.48162 18.0036 6.62227 18.0036 8.99299C18.0036 14.0645 13.8136 18.1558 8.71359 17.9957C3.83359 17.8457 -0.136407 13.6244 0.00359261 8.74291C0.0735926 6.47222 0.983593 4.4216 2.43359 2.88113C2.81359 2.47101 3.46359 2.46101 3.86359 2.86113C4.24359 3.24124 4.24359 3.85143 3.87359 4.24155C2.71359 5.49193 2.00359 7.16243 2.00359 9.00299C2.00359 12.9042 5.18359 16.0551 9.09359 15.9951C12.9236 15.9551 16.0936 12.6541 16.0036 8.82294C15.9636 7.0524 15.2636 5.45191 14.1336 4.25155Z" fill="#FF5552"/>
</svg>
