<svg width="20" height="16" viewBox="0 0 20 16" fill="none" xmlns="http://www.w3.org/2000/svg">
<path fill-rule="evenodd" clip-rule="evenodd" d="M18 0H2C0.9 0 0.01 0.9 0.01 2L0 14C0 15.1 0.9 16 2 16H18C19.1 16 20 15.1 20 14V2C20 0.9 19.1 0 18 0ZM2 2.5C2 2.22386 2.22386 2 2.5 2H17.5C17.7761 2 18 2.22386 18 2.5V13.5C18 13.7761 17.7761 14 17.5 14H2.5C2.22386 14 2 13.7761 2 13.5V2.5ZM10.466 8.31722L16.6817 4.43127C16.9015 4.29061 17.0334 4.05323 17.0334 3.79827C17.0334 3.20922 16.3916 2.85755 15.8905 3.16526L10 6.849L4.10953 3.16526C3.6084 2.85755 2.96661 3.20922 2.96661 3.79827C2.96661 4.05323 3.09848 4.29061 3.31828 4.43127L9.53404 8.31722C9.81537 8.49306 10.1846 8.49306 10.466 8.31722Z" fill="#37474F"/>
</svg>
