<svg width="18" height="20" viewBox="0 0 18 20" fill="none" xmlns="http://www.w3.org/2000/svg">
<path d="M15.2381 14.2857V9.33333C14.7619 9.42857 14.2857 9.52381 13.8095 9.52381H13.3333V15.2381H3.80952V8.57143C3.80952 5.90476 5.90476 3.80952 8.57143 3.80952C8.66667 2.57143 9.23809 1.52381 10 0.666667C9.71428 0.285714 9.14286 0 8.57143 0C7.52381 0 6.66667 0.857143 6.66667 1.90476V2.19048C3.80952 3.04762 1.90476 5.61905 1.90476 8.57143V14.2857L0 16.1905V17.1429H17.1429V16.1905L15.2381 14.2857ZM6.66667 18.0952C6.66667 19.1429 7.52381 20 8.57143 20C9.61905 20 10.4762 19.1429 10.4762 18.0952H6.66667ZM17.1429 4.28571C17.1429 6.09524 15.619 7.61905 13.8095 7.61905C12 7.61905 10.4762 6.09524 10.4762 4.28571C10.4762 2.47619 12 0.952381 13.8095 0.952381C15.619 0.952381 17.1429 2.47619 17.1429 4.28571Z" fill="black"/>
</svg>
