<svg width="22" height="22" viewBox="0 0 22 22" fill="none" xmlns="http://www.w3.org/2000/svg">
<path fill-rule="evenodd" clip-rule="evenodd" d="M16.21 8.09062H21C21.55 8.09062 22 8.61222 22 9.24974L21.97 9.5627L19.43 20.3077C19.19 21.2813 18.42 22 17.5 22H4.5C3.58 22 2.81 21.2813 2.58 20.3077L0.04 9.5627C0.01 9.45838 0 9.35406 0 9.24974C0 8.61222 0.45 8.09062 1 8.09062H5.79L10.17 0.498419C10.36 0.162276 10.68 0 11 0C11.32 0 11.64 0.162276 11.83 0.486828L16.21 8.09062ZM13.7992 8.09207L10.9992 3.22379L8.19922 8.09207H13.7992ZM17.5005 19.6823L4.51055 19.6939L2.31055 10.4094H19.7005L17.5005 19.6823ZM9 15.0459C9 13.7708 9.9 12.7276 11 12.7276C12.1 12.7276 13 13.7708 13 15.0459C13 16.3209 12.1 17.3641 11 17.3641C9.9 17.3641 9 16.3209 9 15.0459Z" fill="#37474F"/>
</svg>
