<svg width="19" height="19" viewBox="0 0 19 19" fill="none" xmlns="http://www.w3.org/2000/svg">
<path d="M1 15.875C1 14.7478 1.44777 13.6668 2.2448 12.8698C3.04183 12.0728 4.12283 11.625 5.25 11.625H13.75C14.8772 11.625 15.9582 12.0728 16.7552 12.8698C17.5522 13.6668 18 14.7478 18 15.875C18 16.4386 17.7761 16.9791 17.3776 17.3776C16.9791 17.7761 16.4386 18 15.875 18H3.125C2.56141 18 2.02091 17.7761 1.6224 17.3776C1.22388 16.9791 1 16.4386 1 15.875Z" stroke="#37474F" stroke-width="1.5" stroke-linejoin="round"/>
<path d="M9.5 7.375C11.2604 7.375 12.6875 5.94791 12.6875 4.1875C12.6875 2.42709 11.2604 1 9.5 1C7.73959 1 6.3125 2.42709 6.3125 4.1875C6.3125 5.94791 7.73959 7.375 9.5 7.375Z" stroke="#37474F" stroke-width="1.5"/>
</svg>
