<svg width="20" height="20" viewBox="0 0 20 20" fill="none" xmlns="http://www.w3.org/2000/svg">
<path fill-rule="evenodd" clip-rule="evenodd" d="M8.99928 0.527344C7.64387 0.527461 6.30814 0.855912 5.10353 1.48529C3.89893 2.11468 2.86037 3.02674 2.07451 4.14539C1.28866 5.26404 0.778287 6.55684 0.585985 7.91593C0.393684 9.27501 0.525026 10.661 0.969055 11.9582C1.41308 13.2554 2.15692 14.4262 3.13851 15.373C4.1201 16.3198 5.31098 17.0151 6.61179 17.4008C7.9126 17.7866 9.28562 17.8517 10.6163 17.5906C11.947 17.3295 13.1967 16.7499 14.2613 15.9L17.9133 19.5994C18.1019 19.7839 18.3545 19.886 18.6167 19.8837C18.8789 19.8814 19.1297 19.7748 19.3151 19.587C19.5005 19.3992 19.6057 19.1452 19.608 18.8796C19.6102 18.614 19.5094 18.3581 19.3273 18.167L15.6753 14.4677C16.6633 13.1981 17.2784 11.6723 17.4504 10.0651C17.6223 8.45787 17.3441 6.83406 16.6475 5.37952C15.9509 3.92498 14.8642 2.69848 13.5116 1.84038C12.159 0.982271 10.5952 0.527235 8.99928 0.527344ZM2.49928 9.13751C2.49928 7.39126 3.1841 5.71653 4.40308 4.48175C5.62207 3.24696 7.27537 2.55327 8.99928 2.55327C10.7232 2.55327 12.3765 3.24696 13.5955 4.48175C14.8145 5.71653 15.4993 7.39126 15.4993 9.13751C15.4993 10.8838 14.8145 12.5585 13.5955 13.7933C12.3765 15.0281 10.7232 15.7218 8.99928 15.7218C7.27537 15.7218 5.62207 15.0281 4.40308 13.7933C3.1841 12.5585 2.49928 10.8838 2.49928 9.13751Z" fill="black" fill-opacity="0.5"/>
</svg>
