<svg width="21" height="17" viewBox="0 0 21 17" fill="none" xmlns="http://www.w3.org/2000/svg">
<path d="M10.4997 0C12.6541 0 14.6968 0.747475 16.4753 2.13131C18.2537 3.50404 19.768 5.51515 20.8554 8.0303C20.9367 8.22121 20.9367 8.44444 20.8554 8.62626C18.6806 13.6566 14.8086 16.6667 10.4997 16.6667H10.4895C6.19073 16.6667 2.31878 13.6566 0.143983 8.62626C0.0626826 8.44444 0.0626826 8.22121 0.143983 8.0303C2.31878 2.99899 6.19073 0 10.4895 0H10.4997ZM10.4997 4.29293C8.25374 4.29293 6.43463 6.10101 6.43463 8.33333C6.43463 10.5556 8.25374 12.3636 10.4997 12.3636C12.7354 12.3636 14.5546 10.5556 14.5546 8.33333C14.5546 6.10101 12.7354 4.29293 10.4997 4.29293Z" fill="#37474F" fill-opacity="0.6"/>
<path d="M13.0321 8.33018C13.0321 9.71402 11.8939 10.8453 10.5016 10.8453C9.09915 10.8453 7.96094 9.71402 7.96094 8.33018C7.96094 8.15847 7.98126 7.99786 8.01175 7.83624H8.06256C9.19061 7.83624 10.1052 6.94736 10.1459 5.83523C10.2577 5.81604 10.3796 5.80493 10.5016 5.80493C11.8939 5.80493 13.0321 6.93624 13.0321 8.33018Z" fill="#37474F" fill-opacity="0.6"/>
</svg>
