<svg width="16" height="15" viewBox="0 0 16 15" fill="none" xmlns="http://www.w3.org/2000/svg">
<path d="M7.57347 0.697275C7.76848 0.378488 8.23152 0.378489 8.42653 0.697276L10.5485 4.16617C10.6178 4.27953 10.7294 4.36062 10.8587 4.39154L14.8135 5.33768C15.1769 5.42463 15.32 5.86502 15.0771 6.14899L12.4337 9.23903C12.3473 9.34 12.3047 9.47121 12.3152 9.60368L12.6375 13.6573C12.6671 14.0298 12.2925 14.302 11.9474 14.1587L8.19171 12.5996C8.06898 12.5486 7.93102 12.5486 7.80829 12.5996L4.05263 14.1587C3.70749 14.302 3.33288 14.0298 3.3625 13.6573L3.68477 9.60368C3.69531 9.47121 3.65267 9.34 3.56629 9.23902L0.922891 6.14899C0.679966 5.86502 0.823057 5.42463 1.1865 5.33768L5.14133 4.39154C5.27057 4.36062 5.38218 4.27953 5.45153 4.16617L7.57347 0.697275Z" fill="#FFC41F"/>
</svg>
